<svg width="283" height="271" viewBox="0 0 283 271" fill="none" xmlns="http://www.w3.org/2000/svg">
<path d="M185.308 178.576C184.371 180.526 191.627 183.241 185.732 191.043C181.061 197.296 174.793 199.2 174.462 198.891C174.301 198.74 175.788 197.481 176.776 195.83C178.19 193.481 176.549 190.678 179.258 184.945C181.63 179.964 184.163 178.001 184.163 178.001C184.153 178.012 185.514 178.175 185.308 178.576ZM173.403 167.292C173.393 167.303 170.884 165.992 164.537 167.353C160.376 168.251 154.77 171.693 152.386 173.502C147.148 177.449 145.394 178.065 145.439 178.231C145.559 178.569 157.239 176.833 165.563 174.1C174.287 171.237 172.316 168.88 174.401 167.819C174.857 167.624 173.403 167.292 173.403 167.292ZM182.866 174.617C182.866 174.617 179.544 172.344 173.278 173.57C166.918 174.847 166.04 175.375 163.431 176.649C160.965 177.838 154.896 181.562 154.924 181.768C154.987 182.133 166.279 182.045 174.532 180.449C183.178 178.773 181.62 176.112 183.745 175.323C184.202 175.147 182.866 174.617 182.866 174.617ZM163.926 162.272C163.917 162.283 159.686 160.255 152.039 160.565C149.066 160.693 145.666 161.757 139.095 163.339C134.2 164.497 126.542 166.951 126.579 167.146C126.672 167.536 138.393 170.412 150.521 167.297C162.834 164.205 162.051 163.745 164.648 162.921C165.213 162.76 163.926 162.272 163.926 162.272ZM146.698 153.541C146.699 153.561 141.631 151.137 131.355 151.253C125.71 151.335 120.314 152.062 115.598 153.111C108.667 154.616 97.6953 157.157 97.4429 157.133C96.1663 156.892 115.413 160.535 132.849 157.851C142.076 156.432 143.24 156.048 147.188 154.662C147.885 154.426 146.698 153.541 146.698 153.541ZM127.61 147.583C127.619 147.572 117.202 144.188 110.827 143.669C106.179 143.284 106.276 142.315 101.41 142.762C94.2591 143.388 82.445 147.092 82.3857 147.301C82.2856 147.697 97.533 149.759 115.453 149.258C120.833 149.106 125.298 149.248 129.44 148.372C130.179 148.226 127.619 147.572 127.61 147.583ZM101.912 138.89C101.921 138.879 92.3676 135.8 87.2839 136.362C79.8592 136.911 53.8611 142.866 53.7887 143.229C53.7048 143.546 77.958 142.298 96.6474 141.694C104.517 141.383 107.651 139.713 106.771 139.725C104.405 139.801 101.912 138.89 101.912 138.89Z" fill="#00228f"/>
<path d="M208.686 228.601C208.277 228.54 207.859 228.491 207.451 228.43C206.469 228.083 206.196 226.111 206.368 225.093C207.923 213.972 200.66 187.392 172.197 168.684C157.334 159.271 147.745 154.933 132.199 150.163C124.598 147.865 116.125 144.794 104.734 141.107C89.8335 136.28 76.2226 130.565 73.4844 129.6C75.3243 129.881 77.155 130.173 78.9764 130.475C79.777 130.656 80.5777 130.836 81.3691 131.027C83.4145 131.367 92.8476 135.927 106.269 140.31C117.603 144.024 125.928 146.292 133.414 148.863C148.762 154.223 158.907 156.996 173.854 166.589C203.838 186.548 212.787 215.582 210.023 226.003C209.854 226.618 209.33 228.486 208.686 228.601Z" fill="#00228f"/>
<path d="M190.551 180.539C190.619 180.559 191.614 168.531 200.47 150.345C207.899 135.121 218.112 123.509 222.42 116.726C225.446 111.919 227.57 107.069 227.955 107.037C228.843 106.995 226.739 121.014 216.64 140.732C204.284 165.374 195.023 175.893 192.203 181.256C191.63 182.383 190.542 180.55 190.551 180.539ZM184.417 174.151C185.191 168.392 191.326 151.533 194.208 129.461C196.048 114.894 195.61 98.9866 197.436 88.6159C198.835 80.6522 201.65 76.6088 200.758 76.3166C200.454 76.1946 192.605 90.1186 186.433 108.234C183.894 115.738 181.219 125.17 179.75 141.274C178.34 157.15 183.025 172.932 183.015 172.924C183.025 172.932 184.253 175.358 184.417 174.151ZM172.978 165.622C172.835 159.899 175.214 142.871 175.461 116.573C175.988 90.524 159.936 74.965 158.965 75.5624C158.626 75.7986 164.635 84.3625 163.513 97.076C162.821 104.63 161.114 121.769 162.873 137.386C164.546 152.785 171.586 165.358 171.547 165.363C171.538 165.374 173.007 166.822 172.978 165.622ZM160.197 158.561C159.879 150.654 159.606 139.072 154.005 110.59C148.69 80.8375 122.093 61.9139 123.131 63.4288C123.467 63.6324 131.941 72.2218 135.389 93.5283C136.761 101.677 137.769 113.534 143.149 130.016C148.471 146.248 158.215 159.503 158.177 159.509C158.177 159.528 160.272 159.946 160.197 158.561ZM144.862 153.369C143.329 145.767 141.006 131.763 130.596 105.316C120.1 77.7148 96.5366 63.5471 95.7449 64.5315C95.5464 64.8827 103.094 68.2257 111.164 93.6658C113.678 101.376 116.772 111.99 124.944 126.983C133.008 141.723 142.388 151.921 142.359 151.935C142.359 151.935 145.138 154.699 144.862 153.369ZM127.756 147.4C125.667 140.646 121.544 125.84 108.541 103.197C95.1647 79.6571 78.2024 67.1716 77.5524 68.0702C77.2308 68.4856 82.4043 86.0846 87.4119 95.7181C90.7598 102.295 94.8607 111.495 104.481 124.06C113.967 136.422 124.31 144.619 124.291 144.641C124.301 144.649 128.123 148.584 127.756 147.4ZM107.034 140.918C104.748 135.27 100.656 122.438 86.0124 104.895C68.6452 84.0268 52.6315 76.8611 52.0661 77.7008C51.7922 78.1003 58.8114 92.3293 64.3194 99.9853C68.029 105.224 73.2454 113.082 83.4359 122.771C93.4648 132.29 103.475 138.946 103.475 138.946C103.446 138.94 107.431 141.907 107.034 140.918ZM86.2682 134.069C82.5573 130.722 74.8752 123.079 56.8283 115.104C35.3508 105.703 20.8888 103.471 20.7979 104.095C20.7424 104.399 31.8086 111.592 38.9918 115.241C43.8856 117.724 50.9218 121.565 62.404 125.646C73.6916 129.695 80.0845 131.959 80.0937 131.948C80.1022 131.918 86.9202 134.661 86.2682 134.069ZM81.6109 132.664C76.6277 130.842 69.8772 128.817 47.831 128.101C21.5625 127.421 4.83787 131.892 5.00235 132.376C5.06997 132.616 19.6013 134.408 28.564 134.964C34.6673 135.318 43.5608 136.074 57.1489 135.804C70.5525 135.511 84.0794 133.72 84.0802 133.74C84.0794 133.72 83.8003 133.509 81.6109 132.664Z" fill="#00228f"/>
</svg>
