<svg width="277" height="286" viewBox="0 0 277 286" fill="none" xmlns="http://www.w3.org/2000/svg">
<g id="Group">
<g id="Group_2">
<path id="Vector" d="M98.5776 191.943C96.4008 191.208 94.486 198.788 85.5 193.692C78.3053 189.661 75.4824 183.564 75.7653 183.198C75.9031 183.021 77.4231 184.382 79.2914 185.199C81.9498 186.371 84.6883 184.425 91.0806 186.539C96.6366 188.395 99.0334 190.731 99.0334 190.731C99.0208 190.723 99.0262 192.108 98.5776 191.943ZM108.913 178.782C108.9 178.774 109.954 176.113 107.694 169.879C106.206 165.792 101.85 160.523 99.6341 158.32C94.7937 153.475 93.9163 151.777 93.7473 151.84C93.4072 151.997 96.7574 163.551 100.72 171.625C104.872 180.089 107.098 177.858 108.488 179.841C108.753 180.279 108.913 178.782 108.913 178.782ZM102.429 189.069C102.429 189.069 104.391 185.49 102.283 179.323C100.11 173.066 99.4394 172.24 97.7572 169.754C96.1837 167.401 91.471 161.697 91.2569 161.747C90.8812 161.849 92.4447 173.188 95.2003 181.313C98.0924 189.824 100.692 187.976 101.801 190.028C102.045 190.468 102.429 189.069 102.429 189.069ZM112.967 168.726C112.954 168.718 114.539 164.251 113.216 156.599C112.694 153.625 111.13 150.321 108.608 143.885C106.75 139.088 103.169 131.653 102.967 131.711C102.569 131.846 101.066 143.93 105.927 155.788C110.788 167.833 111.17 166.998 112.376 169.521C112.62 170.071 112.967 168.726 112.967 168.726ZM119.919 150.487C119.899 150.49 121.791 145.139 120.331 134.825C119.51 129.161 118.04 123.815 116.322 119.187C113.833 112.381 109.728 101.625 109.72 101.369C109.808 100.06 108.477 119.789 113.575 137.026C116.272 146.148 116.829 147.278 118.803 151.098C119.142 151.773 119.919 150.487 119.919 150.487ZM123.709 130.672C123.722 130.68 125.93 119.853 125.646 113.391C125.446 108.679 126.48 108.673 125.375 103.831C123.784 96.711 118.343 85.2314 118.115 85.1939C117.686 85.1353 117.499 100.677 120.361 118.632C121.222 124.023 121.654 128.525 123.117 132.595C123.367 133.322 123.722 130.68 123.709 130.672ZM129.519 103.924C129.531 103.932 131.53 94.0053 130.276 88.956C128.731 81.5527 119.072 56.0576 118.68 56.0234C118.335 55.9726 122.809 80.2136 125.88 98.9314C127.232 106.807 129.399 109.779 129.272 108.896C128.884 106.526 129.519 103.924 129.519 103.924Z" fill="white"/>
</g>
<g id="Group_3">
<g id="Group_4">
<path id="Vector_2" d="M49.2054 220.684C49.2156 220.267 49.2132 219.842 49.2233 219.425C49.4607 218.403 51.4992 217.92 52.5918 217.984C64.4891 218.364 91.4933 208.252 107.452 177.694C115.412 161.776 118.723 151.69 121.71 135.578C123.134 127.705 125.258 118.873 127.649 107.047C130.781 91.5775 135.015 77.308 135.673 74.4569C135.617 76.3337 135.549 78.2023 135.468 80.0628C135.383 80.8856 135.298 81.7085 135.2 82.5232C135.11 84.6125 131.546 94.5655 128.688 108.504C126.262 120.275 124.963 128.872 123.236 136.66C119.601 152.635 118.01 163.113 109.872 179.135C92.7955 211.353 63.4308 223.417 52.1119 221.75C51.4426 221.646 49.4097 221.318 49.2054 220.684Z" fill="white"/>
</g>
<g id="Group_5">
<path id="Vector_3" d="M97.1954 197.715C97.1836 197.786 110.013 197.51 130.369 204.492C147.412 210.352 161.002 219.398 168.726 223.013C174.196 225.547 179.593 227.171 179.677 227.555C179.837 228.444 164.76 227.816 142.625 219.745C114.997 209.926 102.684 201.722 96.654 199.455C95.3891 198.997 97.1828 197.707 97.1954 197.715ZM103.142 190.863C109.324 191.03 127.924 195.415 151.605 195.971C167.226 196.275 183.966 194.146 195.155 194.881C203.746 195.444 208.382 197.847 208.574 196.919C208.663 196.599 192.939 190.179 173.008 185.891C164.753 184.132 154.445 182.442 137.25 182.674C120.302 182.941 104.248 189.332 104.255 189.321C104.248 189.332 101.847 190.826 103.142 190.863ZM110.659 178.444C116.683 177.692 134.973 178.278 162.773 175.733C190.347 173.497 204.686 155.688 203.929 154.774C203.636 154.458 195.375 161.415 181.805 161.637C173.738 161.743 155.419 161.845 139.158 165.274C123.116 168.594 110.756 177.015 110.746 176.977C110.733 176.968 109.395 178.601 110.659 178.444ZM116.45 164.83C124.758 163.67 136.952 162.166 166.297 153.502C197.022 144.993 213.54 116.214 212.076 117.419C211.905 117.78 203.938 127.221 181.889 132.954C173.463 135.2 161.075 137.475 144.372 144.64C127.925 151.72 115.197 162.935 115.187 162.897C115.167 162.9 114.998 165.053 116.45 164.83ZM119.936 148.844C127.764 146.494 142.248 142.669 168.818 129.382C196.597 115.886 208.489 90.6652 207.346 89.9731C206.949 89.8106 204.402 97.7623 178.59 108.586C170.776 111.936 159.971 116.178 145.204 125.994C130.69 135.676 121.143 146.2 121.125 146.173C121.125 146.173 118.568 149.263 119.936 148.844ZM124.012 130.994C130.872 128.174 145.968 122.451 168.185 106.959C191.299 90.9957 202.274 72.5973 201.241 72.0384C200.76 71.7589 182.851 78.8352 173.331 84.8985C166.822 88.9666 157.642 94.0713 145.627 105.088C133.808 115.949 126.499 127.23 126.474 127.213C126.467 127.224 122.81 131.488 124.012 130.994ZM128.159 109.449C133.825 106.548 146.841 101.066 163.459 84.4647C183.233 64.7683 188.714 47.8898 187.754 47.4098C187.296 47.1766 173.186 55.7527 165.819 62.1095C160.77 66.3997 153.152 72.4844 144.248 83.77C135.502 94.8751 129.778 105.657 129.778 105.657C129.78 105.627 127.166 109.954 128.159 109.449ZM132.686 87.8208C135.738 83.7304 142.809 75.1866 148.88 56.1756C156.009 33.5605 156.483 18.7677 155.813 18.7424C155.485 18.7189 149.33 30.6208 146.412 38.2382C144.428 43.4274 141.288 50.9172 138.474 62.9072C135.668 74.6981 134.11 81.3729 134.122 81.381C134.155 81.3864 132.147 88.5399 132.686 87.8208ZM133.565 82.984C134.839 77.7751 136.098 70.7657 133.984 48.5005C131.282 21.9896 124.384 5.63142 123.894 5.84842C123.65 5.94192 123.649 20.7578 124.229 29.8377C124.65 36.0181 125.01 45.0495 127.064 58.697C129.118 72.1564 132.77 85.5808 132.75 85.5836C132.77 85.5808 132.957 85.2774 133.565 82.984Z" fill="white"/>
</g>
</g>
</g>
</svg>
