<svg width="410" height="423" viewBox="0 0 410 423" fill="none" xmlns="http://www.w3.org/2000/svg">
<path d="M146.036 284.234C142.809 283.147 139.968 294.37 126.649 286.828C115.985 280.863 111.803 271.838 112.223 271.296C112.427 271.033 114.68 273.047 117.449 274.257C121.389 275.991 125.45 273.108 134.925 276.236C143.16 278.981 146.712 282.44 146.712 282.44C146.693 282.428 146.701 284.478 146.036 284.234ZM161.363 264.745C161.344 264.733 162.907 260.793 159.558 251.563C157.354 245.514 150.899 237.715 147.616 234.453C140.442 227.282 139.142 224.768 138.892 224.862C138.387 225.094 143.349 242.199 149.221 254.152C155.372 266.681 158.673 263.378 160.732 266.313C161.124 266.961 161.363 264.745 161.363 264.745ZM151.746 279.978C151.746 279.978 154.656 274.678 151.534 265.548C148.315 256.286 147.321 255.062 144.829 251.382C142.497 247.9 135.513 239.457 135.196 239.53C134.639 239.682 136.952 256.469 141.034 268.497C145.318 281.097 149.172 278.36 150.815 281.397C151.177 282.05 151.746 279.978 151.746 279.978ZM167.376 249.855C167.357 249.843 169.708 243.229 167.75 231.9C166.978 227.496 164.66 222.605 160.924 213.078C158.172 205.977 152.866 194.97 152.567 195.056C151.978 195.256 149.745 213.148 156.946 230.701C164.146 248.534 164.714 247.297 166.5 251.032C166.861 251.846 167.376 249.855 167.376 249.855ZM177.689 222.848C177.659 222.852 180.467 214.93 178.307 199.659C177.091 191.274 174.915 183.36 172.37 176.509C168.683 166.433 162.602 150.509 162.59 150.13C162.721 148.193 160.741 177.403 168.291 202.921C172.285 216.426 173.109 218.098 176.034 223.754C176.537 224.753 177.689 222.848 177.689 222.848ZM183.316 193.509C183.335 193.521 186.612 177.49 186.194 167.924C185.9 160.948 187.432 160.939 185.796 153.769C183.44 143.229 175.379 126.235 175.042 126.179C174.405 126.093 174.122 149.103 178.358 175.686C179.632 183.667 180.27 190.331 182.437 196.357C182.807 197.433 183.335 193.521 183.316 193.509ZM191.939 153.906C191.958 153.918 194.924 139.22 193.067 131.745C190.78 120.784 176.472 83.0413 175.891 82.9908C175.379 82.9158 182.002 118.804 186.546 146.515C188.548 158.175 191.759 162.575 191.571 161.268C190.997 157.759 191.939 153.906 191.939 153.906Z" fill="#F48BE0"/>
<path d="M72.8527 326.8C72.8679 326.183 72.8645 325.554 72.8796 324.937C73.232 323.423 76.2538 322.707 77.8733 322.802C95.5082 323.36 135.54 308.379 159.208 263.134C171.012 239.563 175.924 224.631 180.358 200.776C182.472 189.12 185.624 176.044 189.173 158.535C193.82 135.632 200.103 114.505 201.079 110.284C200.996 113.062 200.894 115.829 200.773 118.583C200.647 119.801 200.52 121.019 200.375 122.226C200.24 125.319 194.953 140.055 190.712 160.691C187.111 178.119 185.182 190.848 182.619 202.377C177.226 226.029 174.863 241.542 162.794 265.266C137.469 312.969 93.9375 330.842 77.1604 328.377C76.1684 328.223 73.1552 327.738 72.8527 326.8Z" fill="#F48BE0"/>
<path d="M143.985 292.807C143.968 292.912 162.989 292.498 193.164 302.828C218.429 311.498 238.573 324.887 250.023 330.238C258.132 333.988 266.133 336.389 266.258 336.958C266.494 338.274 244.141 337.35 211.329 325.409C170.372 310.881 152.12 298.739 143.182 295.383C141.307 294.707 143.967 292.795 143.985 292.807ZM152.804 282.66C161.969 282.904 189.543 289.389 224.652 290.203C247.811 290.647 272.63 287.488 289.217 288.572C301.953 289.403 308.825 292.959 309.111 291.585C309.243 291.112 285.934 281.611 256.386 275.27C244.15 272.668 228.868 270.17 203.374 270.52C178.249 270.922 154.445 280.392 154.456 280.376C154.445 280.392 150.884 282.605 152.804 282.66ZM163.954 264.268C172.886 263.152 200 264.012 241.217 260.233C282.098 256.911 303.364 230.537 302.242 229.183C301.807 228.716 289.558 239.02 269.439 239.353C257.479 239.514 230.32 239.672 206.211 244.756C182.426 249.678 164.098 262.151 164.083 262.095C164.064 262.083 162.081 264.501 163.954 264.268ZM172.545 244.108C184.862 242.387 202.942 240.154 246.451 227.315C292.005 214.704 316.507 172.085 314.335 173.869C314.081 174.403 302.267 188.386 269.576 196.883C257.083 200.212 238.715 203.585 213.949 214.201C189.562 224.691 170.689 241.303 170.673 241.246C170.644 241.25 170.392 244.438 172.545 244.108ZM177.72 220.436C189.326 216.953 210.801 211.283 250.199 191.599C291.387 171.606 309.028 134.257 307.334 133.232C306.746 132.992 302.967 144.767 264.695 160.804C253.108 165.766 237.088 172.051 215.19 186.593C193.669 200.934 179.51 216.52 179.484 216.48C179.484 216.48 175.692 221.057 177.72 220.436ZM183.77 194.003C193.941 189.825 216.325 181.346 249.269 158.399C283.543 134.753 299.822 107.506 298.29 106.679C297.578 106.265 271.023 116.75 256.907 125.732C247.255 131.758 233.643 139.32 215.826 155.637C198.3 171.723 187.459 188.429 187.422 188.405C187.411 188.421 181.988 194.736 183.77 194.003ZM189.926 162.1C198.328 157.803 217.628 149.681 242.271 125.093C271.595 95.9213 279.728 70.9274 278.305 70.2171C277.627 69.8719 256.703 82.576 245.779 91.9913C238.292 98.3456 226.996 107.358 213.791 124.072C200.82 140.519 192.328 156.486 192.328 156.486C192.332 156.441 188.455 162.848 189.926 162.1ZM196.648 130.075C201.173 124.017 211.66 111.363 220.668 83.2117C231.248 49.723 231.956 27.8194 230.962 27.7823C230.477 27.7475 221.347 45.373 217.017 56.653C214.073 64.3374 209.415 75.4286 205.239 93.1832C201.074 110.643 198.761 120.527 198.779 120.539C198.828 120.547 195.847 131.14 196.648 130.075ZM197.952 122.913C199.843 115.199 201.713 104.82 198.588 71.8532C194.593 32.5999 184.373 8.38136 183.646 8.70287C183.284 8.8414 183.277 30.7791 184.133 44.2232C184.755 53.3743 185.284 66.7468 188.324 86.9537C191.364 106.882 196.773 126.758 196.743 126.762C196.773 126.758 197.05 126.309 197.952 122.913Z" fill="#F48BE0"/>
</svg>
