<svg width="452" height="466" viewBox="0 0 452 466" fill="none" xmlns="http://www.w3.org/2000/svg">
<path d="M269.461 325.111C266.656 327.758 276.689 335.855 261.975 345.335C250.269 352.961 238.815 352.786 238.478 352.119C238.315 351.794 241.562 350.54 244.253 348.399C248.096 345.359 247.263 340.016 255.434 332.213C262.563 325.443 267.973 323.599 267.973 323.599C267.951 323.612 270.059 324.575 269.461 325.111ZM257.479 300.868C257.457 300.88 254.231 297.484 243.004 296.396C235.64 295.692 224.255 298.325 219.187 299.999C208.071 303.633 204.81 303.717 204.775 304.007C204.749 304.611 224.905 307.846 240.249 307.751C256.331 307.655 254.668 302.856 258.758 302.228C259.629 302.151 257.479 300.868 257.479 300.868ZM268.081 317.501C268.081 317.501 264.164 312.141 253.158 310.878C241.965 309.648 240.189 310.043 235.106 310.743C230.311 311.379 217.988 314.226 217.897 314.571C217.761 315.189 236.204 320.869 250.688 322.563C265.865 324.33 265.073 319.257 269.051 319.086C269.91 319.04 268.081 317.501 268.081 317.501ZM245.342 287.928C245.32 287.94 239.762 282.506 227.108 279.061C222.183 277.734 215.949 277.689 204.213 276.84C195.483 276.175 181.407 276.164 181.338 276.498C181.234 277.17 198.432 287.827 220.221 289.081C242.296 290.467 241.323 289.325 246.092 289.342C247.117 289.375 245.342 287.928 245.342 287.928ZM223.019 265.038C223.008 265.069 216.345 258.568 199.539 253.456C190.295 250.678 181.032 249.064 172.666 248.315C160.393 247.158 140.864 245.579 140.468 245.41C138.548 244.365 167.496 260.133 197.643 264.814C213.597 267.294 215.745 267.277 223.082 267.088C224.371 267.069 223.019 265.038 223.019 265.038ZM195.848 245.637C195.87 245.624 181.13 234.824 171.091 230.705C163.776 227.691 164.569 226.186 156.353 224.395C144.3 221.714 122.635 221.568 122.402 221.872C121.979 222.456 145.451 233.625 174.956 242.058C183.816 244.588 190.991 247.117 198.311 247.846C199.61 247.993 195.87 245.624 195.848 245.637ZM159.71 218.441C159.732 218.428 146.197 208.564 137.551 206.845C125.103 203.897 78.8682 200.051 78.512 200.597C78.1673 201.063 118.474 211.561 149.299 220.226C162.316 223.784 168.514 222.72 167.074 222.286C163.171 221.188 159.71 218.441 159.71 218.441Z" fill="white"/>
<path d="M274.516 417.153C273.891 416.846 273.245 416.551 272.62 416.243C271.254 415.18 272.105 411.879 273.052 410.337C282.877 393.321 288.525 346.987 254.567 302.332C236.601 279.584 223.873 267.688 201.748 252.028C190.91 244.427 179.161 235.136 163.077 223.354C142.04 207.935 123.681 191.757 119.866 188.799C122.671 190.198 125.453 191.61 128.213 193.035C129.395 193.737 130.577 194.438 131.738 195.153C134.837 196.752 147.168 208.923 166.094 222.868C182.068 234.664 194.103 242.591 204.575 250.572C225.989 267.076 240.649 276.75 258.634 299.83C294.241 347.274 289.721 398.409 278.393 413.68C277.715 414.579 275.636 417.302 274.516 417.153Z" fill="white"/>
<path d="M277.793 331.054C277.892 331.121 287.415 312.305 313.826 287.651C335.96 267.018 360.271 253.63 371.765 244.952C379.864 238.788 386.52 232.091 387.171 232.238C388.648 232.629 376.006 254.074 346.559 280.548C310.19 313.771 288.15 325.896 280.023 333.059C278.346 334.575 277.771 331.067 277.793 331.054ZM271.966 317.622C277.011 308.766 298.105 284.84 317.305 250.855C329.876 228.394 339.606 202.603 349.397 186.878C356.914 174.803 364.167 169.757 362.902 168.827C362.485 168.474 340.519 186.8 318.54 212.726C309.463 223.475 298.9 237.253 285.926 262.375C273.198 287.162 270.491 314.944 270.48 314.925C270.491 314.944 270.905 319.476 271.966 317.622ZM258.875 298.009C262.399 288.737 277.465 262.601 295.135 220.464C313.1 178.873 297.088 145.581 295.108 146.04C294.4 146.244 298.595 163.109 288.414 182.962C282.325 194.745 268.282 221.408 260.903 247.414C253.526 273.025 256.773 296.866 256.706 296.855C256.684 296.867 258.134 299.953 258.875 298.009ZM242.627 280.064C247.299 267.192 254.458 248.438 264.006 199.772C274.857 149.213 243.824 105.07 244.524 108.04C244.941 108.541 253.147 126.72 244.791 162.742C241.682 176.546 235.545 196.122 233.514 225.388C231.551 254.222 238.77 280.554 238.704 280.543C238.692 280.574 241.84 282.328 242.627 280.064ZM220.979 263.803C223.465 250.794 228.865 227.089 229.219 179.212C230.193 129.435 200.993 94.5015 199.053 95.6748C198.498 96.1368 208.636 105.406 205.118 150.457C204.163 164.146 202.251 182.801 205.758 211.115C209.257 238.966 217.887 260.198 217.832 260.205C217.832 260.205 220.557 266.082 220.979 263.803ZM196.948 245.378C197.97 233.445 200.953 207.523 194.575 164.42C188.174 119.684 168.656 90.8615 167.004 91.9701C166.206 92.4717 163.104 123.426 164.961 141.493C166.113 153.791 166.773 170.694 174.242 195.852C181.625 220.617 193.143 239.131 193.098 239.156C193.109 239.174 196.77 247.47 196.948 245.378ZM167.345 224.264C167.319 214.006 169.057 191.272 156.649 155.519C141.973 113.016 120.513 93.2327 119.037 94.2902C118.328 94.7908 120.454 121.282 124.427 136.429C127.049 146.764 130.413 162.085 140.702 182.917C150.839 203.393 162.825 219.257 162.825 219.257C162.781 219.233 167.345 226.058 167.345 224.264ZM137.911 202.537C134.046 195.242 126.512 178.992 102.261 156.859C73.3396 130.664 51.1747 119.611 50.6168 120.566C50.3269 121.026 63.6854 138.299 73.0262 147.872C79.3924 154.389 88.3673 164.194 104.449 176.68C120.234 189.014 129.193 195.953 129.215 195.941C129.249 195.897 138.588 203.824 137.911 202.537ZM131.225 197.874C124.278 192.374 114.578 185.634 79.0257 173.102C36.5507 158.449 6.28799 157 6.23861 157.863C6.19191 158.283 28.7584 168.666 43.0381 174.186C52.7785 177.905 66.8135 183.711 89.1931 190.292C111.286 196.741 134.564 200.846 134.553 200.877C134.564 200.846 134.247 200.363 131.225 197.874Z" fill="white"/>
</svg>
